<?xml version="1.0" encoding="UTF-8"?>
<svg xmlns="http://www.w3.org/2000/svg" xmlns:xlink="http://www.w3.org/1999/xlink" viewBox="0 0 16 16" width="16px" height="16px">
<g id="surface23250585">
<path style=" stroke:none;fill-rule:nonzero;fill:rgb(100%,100%,100%);fill-opacity:1;" d="M 5.578125 2.34375 C 5.527344 2.34375 5.472656 2.351562 5.421875 2.359375 C 4.746094 2.492188 4.050781 2.722656 3.347656 3.007812 C 2.984375 3.152344 2.679688 3.402344 2.460938 3.726562 C 0.84375 6.175781 0.386719 8.710938 0.652344 11.253906 C 0.664062 11.351562 0.71875 11.4375 0.800781 11.492188 C 1.8125 12.128906 2.859375 12.6875 3.964844 13.070312 C 4.382812 13.214844 4.847656 13.046875 5.089844 12.675781 L 5.621094 11.867188 C 5.847656 11.929688 6.082031 11.984375 6.316406 12.03125 C 6.855469 12.164062 7.417969 12.238281 7.992188 12.238281 C 8.585938 12.238281 9.160156 12.160156 9.714844 12.019531 C 9.929688 11.976562 10.144531 11.925781 10.355469 11.867188 L 10.90625 12.6875 C 11.152344 13.054688 11.613281 13.214844 12.023438 13.074219 C 13.132812 12.691406 14.183594 12.128906 15.199219 11.492188 C 15.28125 11.4375 15.335938 11.351562 15.34375 11.253906 C 15.613281 8.710938 15.15625 6.175781 13.535156 3.730469 C 13.535156 3.726562 13.535156 3.726562 13.535156 3.726562 C 13.320312 3.402344 13.011719 3.152344 12.648438 3.003906 C 11.945312 2.722656 11.25 2.492188 10.578125 2.359375 C 10.152344 2.277344 9.722656 2.496094 9.527344 2.878906 L 9.46875 2.996094 C 9.0625 2.949219 8.625 2.910156 8 2.925781 C 7.371094 2.910156 6.933594 2.949219 6.53125 2.996094 L 6.472656 2.878906 C 6.472656 2.878906 6.472656 2.878906 6.46875 2.878906 C 6.296875 2.542969 5.949219 2.332031 5.578125 2.34375 Z M 5.648438 2.984375 C 5.753906 3 5.84375 3.0625 5.902344 3.171875 L 6.054688 3.46875 C 6.117188 3.589844 6.246094 3.660156 6.382812 3.640625 C 6.796875 3.582031 7.289062 3.546875 7.992188 3.566406 C 7.996094 3.566406 8 3.566406 8.007812 3.566406 C 8.710938 3.546875 9.203125 3.582031 9.617188 3.640625 C 9.75 3.660156 9.882812 3.589844 9.945312 3.46875 L 10.097656 3.171875 C 10.171875 3.027344 10.3125 2.960938 10.453125 2.988281 C 11.070312 3.109375 11.730469 3.328125 12.410156 3.597656 C 12.652344 3.695312 12.855469 3.863281 13 4.078125 C 13 4.082031 13 4.082031 13 4.082031 L 13.003906 4.082031 C 14.507812 6.359375 14.933594 8.664062 14.714844 11.03125 C 13.769531 11.617188 12.8125 12.125 11.816406 12.46875 C 11.675781 12.515625 11.53125 12.46875 11.4375 12.332031 L 10.9375 11.585938 C 11.125 11.5 11.3125 11.40625 11.492188 11.304688 C 11.59375 11.25 11.660156 11.144531 11.664062 11.027344 C 11.664062 10.910156 11.601562 10.800781 11.5 10.742188 C 11.398438 10.6875 11.273438 10.6875 11.175781 10.75 C 10.621094 11.066406 10.019531 11.300781 9.386719 11.441406 C 8.941406 11.523438 8.476562 11.574219 7.988281 11.582031 C 7.519531 11.574219 7.070312 11.527344 6.636719 11.449219 C 5.992188 11.308594 5.378906 11.074219 4.8125 10.75 C 4.765625 10.722656 4.710938 10.707031 4.660156 10.707031 C 4.511719 10.699219 4.378906 10.796875 4.339844 10.941406 C 4.300781 11.082031 4.363281 11.234375 4.492188 11.304688 C 4.671875 11.40625 4.855469 11.496094 5.039062 11.582031 L 4.554688 12.328125 C 4.464844 12.464844 4.316406 12.515625 4.175781 12.464844 C 3.183594 12.121094 2.226562 11.617188 1.285156 11.03125 C 1.0625 8.664062 1.488281 6.355469 2.996094 4.082031 C 3.140625 3.863281 3.34375 3.699219 3.585938 3.601562 C 4.265625 3.328125 4.925781 3.109375 5.542969 2.988281 C 5.578125 2.980469 5.613281 2.980469 5.648438 2.984375 Z M 10.113281 6.371094 C 9.5 6.371094 9 7.027344 9 7.820312 C 9 8.613281 9.5 9.265625 10.113281 9.265625 C 10.722656 9.265625 11.226562 8.613281 11.226562 7.820312 C 11.226562 7.027344 10.722656 6.371094 10.113281 6.371094 Z M 5.953125 6.398438 C 5.339844 6.398438 4.832031 7.046875 4.832031 7.835938 C 4.832031 8.625 5.339844 9.273438 5.953125 9.273438 C 6.570312 9.273438 7.078125 8.625 7.078125 7.835938 C 7.078125 7.046875 6.570312 6.398438 5.953125 6.398438 Z M 5.953125 6.398438 "/>
</g>
</svg>
