<svg id="visual" viewBox="0 0 900 600" width="900" height="600" xmlns="http://www.w3.org/2000/svg" xmlns:xlink="http://www.w3.org/1999/xlink" version="1.1"><rect x="0" y="0" width="900" height="600" fill="#121212"></rect><defs><linearGradient id="grad1_0" x1="33.3%" y1="0%" x2="100%" y2="100%"><stop offset="20%" stop-color="#2c263e" stop-opacity="1"></stop><stop offset="80%" stop-color="#2c263e" stop-opacity="1"></stop></linearGradient></defs><defs><linearGradient id="grad1_1" x1="33.3%" y1="0%" x2="100%" y2="100%"><stop offset="20%" stop-color="#2c263e" stop-opacity="1"></stop><stop offset="80%" stop-color="#282337" stop-opacity="1"></stop></linearGradient></defs><defs><linearGradient id="grad1_2" x1="33.3%" y1="0%" x2="100%" y2="100%"><stop offset="20%" stop-color="#252031" stop-opacity="1"></stop><stop offset="80%" stop-color="#282337" stop-opacity="1"></stop></linearGradient></defs><defs><linearGradient id="grad1_3" x1="33.3%" y1="0%" x2="100%" y2="100%"><stop offset="20%" stop-color="#252031" stop-opacity="1"></stop><stop offset="80%" stop-color="#211e2b" stop-opacity="1"></stop></linearGradient></defs><defs><linearGradient id="grad1_4" x1="33.3%" y1="0%" x2="100%" y2="100%"><stop offset="20%" stop-color="#1d1b24" stop-opacity="1"></stop><stop offset="80%" stop-color="#211e2b" stop-opacity="1"></stop></linearGradient></defs><defs><linearGradient id="grad1_5" x1="33.3%" y1="0%" x2="100%" y2="100%"><stop offset="20%" stop-color="#1d1b24" stop-opacity="1"></stop><stop offset="80%" stop-color="#1a181e" stop-opacity="1"></stop></linearGradient></defs><defs><linearGradient id="grad1_6" x1="33.3%" y1="0%" x2="100%" y2="100%"><stop offset="20%" stop-color="#161518" stop-opacity="1"></stop><stop offset="80%" stop-color="#1a181e" stop-opacity="1"></stop></linearGradient></defs><defs><linearGradient id="grad1_7" x1="33.3%" y1="0%" x2="100%" y2="100%"><stop offset="20%" stop-color="#161518" stop-opacity="1"></stop><stop offset="80%" stop-color="#121212" stop-opacity="1"></stop></linearGradient></defs><defs><linearGradient id="grad2_0" x1="0%" y1="0%" x2="66.7%" y2="100%"><stop offset="20%" stop-color="#2c263e" stop-opacity="1"></stop><stop offset="80%" stop-color="#2c263e" stop-opacity="1"></stop></linearGradient></defs><defs><linearGradient id="grad2_1" x1="0%" y1="0%" x2="66.7%" y2="100%"><stop offset="20%" stop-color="#282337" stop-opacity="1"></stop><stop offset="80%" stop-color="#2c263e" stop-opacity="1"></stop></linearGradient></defs><defs><linearGradient id="grad2_2" x1="0%" y1="0%" x2="66.7%" y2="100%"><stop offset="20%" stop-color="#282337" stop-opacity="1"></stop><stop offset="80%" stop-color="#252031" stop-opacity="1"></stop></linearGradient></defs><defs><linearGradient id="grad2_3" x1="0%" y1="0%" x2="66.7%" y2="100%"><stop offset="20%" stop-color="#211e2b" stop-opacity="1"></stop><stop offset="80%" stop-color="#252031" stop-opacity="1"></stop></linearGradient></defs><defs><linearGradient id="grad2_4" x1="0%" y1="0%" x2="66.7%" y2="100%"><stop offset="20%" stop-color="#211e2b" stop-opacity="1"></stop><stop offset="80%" stop-color="#1d1b24" stop-opacity="1"></stop></linearGradient></defs><defs><linearGradient id="grad2_5" x1="0%" y1="0%" x2="66.7%" y2="100%"><stop offset="20%" stop-color="#1a181e" stop-opacity="1"></stop><stop offset="80%" stop-color="#1d1b24" stop-opacity="1"></stop></linearGradient></defs><defs><linearGradient id="grad2_6" x1="0%" y1="0%" x2="66.7%" y2="100%"><stop offset="20%" stop-color="#1a181e" stop-opacity="1"></stop><stop offset="80%" stop-color="#161518" stop-opacity="1"></stop></linearGradient></defs><defs><linearGradient id="grad2_7" x1="0%" y1="0%" x2="66.7%" y2="100%"><stop offset="20%" stop-color="#121212" stop-opacity="1"></stop><stop offset="80%" stop-color="#161518" stop-opacity="1"></stop></linearGradient></defs><g transform="translate(900, 0)"><path d="M0 486.7C-67.6 483.3 -135.2 479.9 -186.3 449.7C-237.3 419.5 -271.8 362.6 -316.8 316.8C-361.7 270.9 -417.1 236.2 -447.2 185.2C-477.2 134.3 -482 67.1 -486.7 0L0 0Z" fill="#141415"></path><path d="M0 425.9C-59.2 422.9 -118.3 419.9 -163 393.5C-207.7 367.1 -237.9 317.3 -277.2 277.2C-316.5 237.1 -365 206.7 -391.3 162.1C-417.6 117.5 -421.7 58.7 -425.9 0L0 0Z" fill="#18171b"></path><path d="M0 365.1C-50.7 362.5 -101.4 359.9 -139.7 337.3C-178 314.6 -203.9 272 -237.6 237.6C-271.3 203.2 -312.8 177.1 -335.4 138.9C-357.9 100.7 -361.5 50.3 -365.1 0L0 0Z" fill="#1c1921"></path><path d="M0 304.2C-42.3 302.1 -84.5 299.9 -116.4 281.1C-148.3 262.2 -169.9 226.6 -198 198C-226.1 169.3 -260.7 147.6 -279.5 115.8C-298.3 83.9 -301.2 42 -304.2 0L0 0Z" fill="#1f1c28"></path><path d="M0 243.4C-33.8 241.7 -67.6 239.9 -93.1 224.8C-118.7 209.8 -135.9 181.3 -158.4 158.4C-180.9 135.5 -208.5 118.1 -223.6 92.6C-238.6 67.1 -241 33.6 -243.4 0L0 0Z" fill="#231f2e"></path><path d="M0 182.5C-25.4 181.2 -50.7 180 -69.9 168.6C-89 157.3 -101.9 136 -118.8 118.8C-135.6 101.6 -156.4 88.6 -167.7 69.5C-179 50.3 -180.7 25.2 -182.5 0L0 0Z" fill="#272234"></path><path d="M0 121.7C-16.9 120.8 -33.8 120 -46.6 112.4C-59.3 104.9 -68 90.7 -79.2 79.2C-90.4 67.7 -104.3 59 -111.8 46.3C-119.3 33.6 -120.5 16.8 -121.7 0L0 0Z" fill="#2a253b"></path><path d="M0 60.8C-8.5 60.4 -16.9 60 -23.3 56.2C-29.7 52.4 -34 45.3 -39.6 39.6C-45.2 33.9 -52.1 29.5 -55.9 23.2C-59.7 16.8 -60.2 8.4 -60.8 0L0 0Z" fill="#2c263e"></path></g><g transform="translate(0, 600)"><path d="M0 -486.7C64.1 -481.3 128.2 -475.9 186.3 -449.7C244.4 -423.5 296.5 -376.5 323.1 -323.1C349.8 -269.8 351.1 -209.9 374.2 -155C397.2 -100.1 442 -50 486.7 0L0 0Z" fill="#141415"></path><path d="M0 -425.9C56.1 -421.2 112.2 -416.4 163 -393.5C213.8 -370.6 259.4 -329.5 282.8 -282.8C306.1 -236 307.2 -183.7 327.4 -135.6C347.6 -87.5 386.7 -43.8 425.9 0L0 0Z" fill="#18171b"></path><path d="M0 -365.1C48.1 -361 96.1 -356.9 139.7 -337.3C183.3 -317.6 222.3 -282.4 242.4 -242.4C262.4 -202.3 263.4 -157.4 280.6 -116.2C297.9 -75 331.5 -37.5 365.1 0L0 0Z" fill="#1c1921"></path><path d="M0 -304.2C40.1 -300.8 80.1 -297.4 116.4 -281.1C152.7 -264.7 185.3 -235.3 202 -202C218.7 -168.6 219.5 -131.2 233.9 -96.9C248.3 -62.5 276.2 -31.3 304.2 0L0 0Z" fill="#1f1c28"></path><path d="M0 -243.4C32 -240.7 64.1 -237.9 93.1 -224.8C122.2 -211.8 148.2 -188.3 161.6 -161.6C174.9 -134.9 175.6 -105 187.1 -77.5C198.6 -50 221 -25 243.4 0L0 0Z" fill="#231f2e"></path><path d="M0 -182.5C24 -180.5 48.1 -178.5 69.9 -168.6C91.6 -158.8 111.2 -141.2 121.2 -121.2C131.2 -101.2 131.7 -78.7 140.3 -58.1C149 -37.5 165.7 -18.8 182.5 0L0 0Z" fill="#272234"></path><path d="M0 -121.7C16 -120.3 32 -119 46.6 -112.4C61.1 -105.9 74.1 -94.1 80.8 -80.8C87.5 -67.4 87.8 -52.5 93.5 -38.7C99.3 -25 110.5 -12.5 121.7 0L0 0Z" fill="#2a253b"></path><path d="M0 -60.8C8 -60.2 16 -59.5 23.3 -56.2C30.5 -52.9 37.1 -47.1 40.4 -40.4C43.7 -33.7 43.9 -26.2 46.8 -19.4C49.7 -12.5 55.2 -6.3 60.8 0L0 0Z" fill="#2c263e"></path></g></svg>